<svg width="24" height="24" viewBox="0 0 24 24" fill="none" xmlns="http://www.w3.org/2000/svg">
<path d="M17.7143 16.5715V7.42864C17.7143 4.7349 17.7143 3.38804 16.8776 2.55119C16.0407 1.71436 14.6939 1.71436 12.0002 1.71436H7.42895C4.7353 1.71436 3.38847 1.71436 2.55165 2.55119C1.71484 3.38804 1.71484 4.7349 1.71484 7.42864V16.5715C1.71484 19.2652 1.71484 20.6121 2.55165 21.449C3.38847 22.2858 4.7353 22.2858 7.42895 22.2858H12.0002C14.6939 22.2858 16.0407 22.2858 16.8776 21.449C17.7143 20.6121 17.7143 19.2652 17.7143 16.5715Z" stroke="#E6FFFB" stroke-width="1.8"/>
<path d="M10.8574 22.2852H17.7144C19.8693 22.2852 20.9467 22.2852 21.6162 21.6157C22.2856 20.9462 22.2856 19.8687 22.2856 17.7138V9.71376C22.2856 7.55877 22.2856 6.48127 21.6162 5.81181C20.9467 5.14233 19.8693 5.14233 17.7144 5.14233" stroke="#E6FFFB" stroke-width="1.8"/>
<path d="M13.1426 10.8577V13.1434" stroke="#E6FFFB" stroke-width="1.8" stroke-linecap="round"/>
</svg>
