<svg width="24" height="24" viewBox="0 0 24 24" fill="none" xmlns="http://www.w3.org/2000/svg">
<path d="M12.002 22C14.7634 22 17.002 19.7614 17.002 17C17.002 15.3644 16.2167 13.9122 15.0025 13V5.00049C15.0025 4.06815 15.0025 3.60198 14.8501 3.23428C14.6471 2.74451 14.258 2.35537 13.7682 2.15239C13.4005 2 12.9343 2 12.002 2C11.0697 2 10.6035 2 10.2358 2.15239C9.74597 2.35537 9.35683 2.74451 9.15385 3.23428C9.00146 3.60198 9.00146 4.06815 9.00146 5.00049V13C7.78729 13.9122 7.00195 15.3644 7.00195 17C7.00195 19.7614 9.24053 22 12.002 22Z" stroke="#08979C" stroke-width="1.5" stroke-linejoin="round"/>
<path d="M12.002 15C10.8974 15 10.002 15.8954 10.002 17C10.002 18.1046 10.8974 19 12.002 19C13.1066 19 14.002 18.1046 14.002 17C14.002 15.8954 13.1066 15 12.002 15ZM12.002 15V8" stroke="#08979C" stroke-width="1.5" stroke-linecap="round" stroke-linejoin="round"/>
</svg>
